<svg width="101" height="87" viewBox="0 0 101 87" fill="none" xmlns="http://www.w3.org/2000/svg">
<g clip-path="url(#clip0)">
<path d="M25.0612 27.9425C25.0612 27.9425 14.2591 31.6627 12.1874 35.0967C10.1158 38.5308 25.0612 27.9425 25.0612 27.9425Z" fill="#FDE617"/>
<path d="M6.39706 39.8504C6.32191 39.856 6.24644 39.8454 6.17575 39.8193C6.10505 39.7932 6.04078 39.7523 5.98728 39.6992C5.65122 39.3965 5.92588 38.8242 6.16158 38.42C9.3219 33.003 25.2122 27.2945 25.887 27.0542L27.3401 26.5367L26.0958 27.4482C26.0498 27.482 21.4271 30.8654 16.6947 34.053C9.33753 39.0089 7.15325 39.8504 6.39706 39.8504ZM24.4747 28.0667C20.3023 29.6816 9.05781 34.3499 6.55112 38.6471C6.21726 39.2193 6.2879 39.3629 6.28878 39.3642C6.35635 39.437 7.21025 39.8943 16.3879 33.7163C19.5872 31.5627 22.7436 29.3136 24.4747 28.0667V28.0667Z" fill="#3F3D56"/>
<path d="M24.8271 24.2266C24.8271 24.2266 14.8725 23.2034 11.8526 24.9519C8.83279 26.7004 24.8271 24.2266 24.8271 24.2266Z" fill="#FDE617"/>
<path d="M11.2621 25.899C7.77761 25.899 7.53838 25.3404 7.42878 25.0851C7.20981 24.5741 7.8192 24.0929 8.01947 23.9348C12.3403 20.5237 25.4642 23.9709 26.0208 24.1192L27.0882 24.4039L25.9946 24.56C25.9506 24.5663 21.5534 25.1917 17.116 25.5832C14.5281 25.8115 12.6409 25.899 11.2621 25.899ZM14.3157 22.893C11.8614 22.893 9.61614 23.2486 8.29897 24.2884C7.90151 24.6021 7.80291 24.8138 7.84319 24.9074C7.9442 25.1428 8.90836 25.855 17.0763 25.1343C20.12 24.8657 23.1446 24.4868 24.7509 24.2744C22.6927 23.8007 18.2373 22.893 14.3157 22.893Z" fill="#3F3D56"/>
<path d="M27.6759 22.4735C27.6759 22.4735 22.6688 10.4517 23.882 9.26171C25.0951 8.07175 27.6759 22.4735 27.6759 22.4735Z" fill="#FDE617"/>
<path d="M27.9528 23.531L27.3302 21.9403C27.3151 21.9013 25.7917 17.9993 24.5363 13.9821C21.9506 5.70869 23.0105 5.00219 23.3587 4.77002C23.4446 4.70844 23.5456 4.67123 23.6509 4.66234C23.7563 4.65345 23.8621 4.67321 23.9571 4.71952C25.9101 5.62947 27.5802 20.1775 27.7642 21.8333L27.9528 23.531ZM23.7016 5.11123C23.6679 5.11287 23.6356 5.12465 23.6087 5.14501C22.3644 5.97453 24.8869 14.1413 27.1044 20.0855C26.3438 13.9564 24.9433 5.67623 23.7667 5.12795C23.7465 5.11762 23.7243 5.1119 23.7016 5.11123Z" fill="#3F3D56"/>
<path d="M29.5684 25.1171C29.5684 25.1171 32.2559 12.9657 35.0714 12.9657C37.8869 12.9657 29.5684 25.1171 29.5684 25.1171Z" fill="#FDE617"/>
<path d="M28.8593 25.9557L29.1252 24.9552C29.3204 24.2215 33.9608 6.98564 39.0336 6.98564C39.729 6.98564 40.029 7.31188 40.1584 7.58553C41.511 10.45 30.7487 23.6594 29.5172 25.1562L28.8593 25.9557ZM39.0336 7.43633C34.9846 7.43633 30.9598 20.2327 29.8561 24.0252C33.4876 19.5136 40.726 9.84324 39.7508 7.77797C39.7107 7.69347 39.5895 7.43633 39.0336 7.43633Z" fill="#3F3D56"/>
<path d="M31.146 25.2383C31.146 25.2383 40.3857 19.4 59.316 21.1822C78.2462 22.9644 31.146 25.2383 31.146 25.2383Z" fill="#FDE617"/>
<path d="M30.5157 25.4818L30.9994 25.0672C31.0973 24.9833 33.4528 22.9924 38.1724 21.3914C42.5154 19.9177 49.7551 18.5296 59.5809 20.2843C63.7323 21.0256 64.2712 21.578 64.2351 22.0644C64.1995 22.545 64.1159 23.6706 47.5295 24.7142C39.4242 25.224 31.2342 25.4613 31.1523 25.4636L30.5157 25.4818ZM50.6634 19.9154C39.9905 19.9154 33.6806 23.7074 31.8511 24.9911C34.0169 24.9218 40.7889 24.6867 47.5022 24.2642C62.9147 23.2946 63.7706 22.2339 63.7855 22.0311C63.7873 22.0094 63.7759 21.4912 59.5017 20.728C56.5853 20.1969 53.6277 19.925 50.6634 19.9154Z" fill="#3F3D56"/>
<path d="M37.0053 25.923C37.0053 25.923 53.1901 25.707 54.0994 27.4351C55.0086 29.1631 37.0053 25.923 37.0053 25.923Z" fill="#FDE617"/>
<path d="M56.1719 30.3387C51.0058 30.3387 38.5881 26.6295 36.94 26.13L35.5893 25.7208L37.0003 25.6891C39.0705 25.6428 57.26 25.3402 58.4042 29.0019C58.5398 29.4357 58.3826 29.714 58.2268 29.8711C57.9011 30.1995 57.1724 30.3387 56.1719 30.3387ZM38.4816 26.1191C46.0732 28.344 56.6145 30.8577 57.9068 29.5538C57.9768 29.4831 58.0477 29.3719 57.9741 29.1364C57.1612 26.535 44.7554 26.0766 38.4816 26.1191Z" fill="#3F3D56"/>
<path d="M33.8503 27.7171C33.8503 27.7171 43.626 32.2351 41.7158 33.6253C39.8056 35.0154 33.8503 27.7171 33.8503 27.7171Z" fill="#FDE617"/>
<path d="M47.8068 39.0915C43.0779 39.0915 33.4495 27.7183 33.0017 27.1861L32.3678 26.4327L33.2664 26.8354C33.922 27.1293 49.3277 34.073 49.6649 37.5511C49.7096 38.0123 49.5071 38.4157 49.0795 38.7176C48.7051 38.973 48.2598 39.1039 47.8068 39.0915ZM34.0103 27.67C37.7283 31.9353 46.0006 40.3397 48.8193 38.3495C49.1195 38.1376 49.2456 37.8978 49.2164 37.5945C48.9738 35.0939 38.9066 29.9375 34.0103 27.67Z" fill="#3F3D56"/>
<path d="M50.0762 33.1253C50.0762 33.1253 58.1892 36.5055 56.3863 38.7589C54.5834 41.0123 50.0762 33.1253 50.0762 33.1253Z" fill="#FDE617"/>
<path d="M34.9771 30.4212C34.9771 30.4212 51.8791 48.8993 50.3016 50.026C48.724 51.1527 34.9771 30.4212 34.9771 30.4212Z" fill="#FDE617"/>
<path d="M31.822 29.0692C31.822 29.0692 38.9382 40.9202 37.4859 42.0724C36.0336 43.2245 31.822 29.0692 31.822 29.0692Z" fill="#FDE617"/>
<path d="M39.8767 46.5116C39.7879 46.511 39.6998 46.4963 39.6157 46.4679C37.0069 45.6109 31.7487 30.2175 31.1578 28.4651L30.6323 26.9066L31.5577 28.2664C31.5852 28.307 34.3512 32.3778 36.8057 36.5892C41.3433 44.3746 40.9672 45.9056 40.2896 46.3798C40.169 46.4658 40.0247 46.5118 39.8767 46.5116ZM32.1581 29.9811C34.0761 35.4252 37.9374 45.4423 39.7563 46.0398C39.8009 46.0586 39.8494 46.0658 39.8975 46.0607C39.9456 46.0555 39.9916 46.0383 40.0312 46.0106C40.4035 45.75 40.7968 44.3325 36.4173 36.8178C34.8635 34.1518 33.1839 31.5414 32.1581 29.9811H32.1581Z" fill="#3F3D56"/>
<path d="M28.8115 28.6185C28.8115 28.6185 22.4069 47.5152 26.337 47.3204C30.2671 47.1256 28.8115 28.6185 28.8115 28.6185Z" fill="#FDE617"/>
<path d="M24.7428 50.4785C24.0531 50.4785 23.5227 50.2089 23.1653 49.6763C20.6297 45.8977 28.1408 29.233 28.4617 28.5254L28.8043 27.7703L28.891 28.5949C28.9621 29.2698 30.5887 45.1725 26.904 49.4209C26.3214 50.0923 25.6284 50.4474 24.8442 50.4765C24.8101 50.4778 24.7762 50.4785 24.7428 50.4785ZM28.522 29.5057C27.0371 32.9197 21.4427 46.3004 23.5396 49.4253C23.8253 49.8513 24.2465 50.0487 24.8275 50.0262C25.4913 50.0016 26.0591 49.7069 26.5635 49.1255C29.6437 45.5742 28.8116 32.937 28.522 29.5057Z" fill="#3F3D56"/>
<path d="M26.5994 29.5578C26.5994 29.5578 15.8487 41.853 16.8325 43.148C17.8164 44.4429 26.5994 29.5578 26.5994 29.5578Z" fill="#FDE617"/>
<path d="M13.5982 47.6302C13.4559 47.6325 13.3169 47.5865 13.2041 47.4997C13.1275 47.4374 13.065 47.3595 13.0209 47.2712C12.9768 47.1828 12.9521 47.0861 12.9483 46.9874C12.6783 43.933 26.9889 28.017 27.5981 27.3409L29.0387 25.7426L27.9605 27.6047C27.501 28.3982 16.6745 47.0457 13.7591 47.6139C13.7061 47.6245 13.6523 47.63 13.5982 47.6302ZM26.4127 29.3507C21.6714 34.7352 13.2098 44.8273 13.3973 46.9478C13.3957 46.9847 13.4023 47.0215 13.4168 47.0555C13.4313 47.0895 13.4532 47.1197 13.4809 47.1441C13.5087 47.1631 13.5404 47.1754 13.5737 47.1802C13.607 47.185 13.6409 47.182 13.6728 47.1716C15.6877 46.779 22.726 35.5548 26.4127 29.3507H26.4127Z" fill="#3F3D56"/>
<path d="M23.3726 21.2785C23.3726 21.2785 13.9998 10.208 5.33252 11.2809C-3.33474 12.3537 23.3726 21.2785 23.3726 21.2785Z" fill="#FDE617"/>
<path d="M24.622 21.7959L23.8843 21.6273C23.8251 21.6138 17.9012 20.2552 12.0445 18.5221C0.0515479 14.9733 0.0128139 13.3414 0.000275445 12.8053C-0.0151302 12.1583 0.643566 11.6579 2.01399 11.2754C7.09978 9.85589 12.8423 12.652 16.7628 15.2482C19.3955 17.0077 21.8516 19.018 24.0966 21.2511L24.622 21.7959ZM4.92452 11.3409C3.98223 11.3361 3.04371 11.4602 2.13503 11.7096C1.03947 12.0152 0.441517 12.4006 0.450765 12.7946C0.502044 14.9581 13.8022 18.8161 23.208 21.0086C20.9845 18.8759 12.5843 11.3409 4.92452 11.3409H4.92452Z" fill="#3F3D56"/>
<path d="M16.0468 20.5062C16.0468 20.5062 3.65203 19.6048 4.55347 21.8582C5.45491 24.1117 16.0468 20.5062 16.0468 20.5062Z" fill="#FDE617"/>
<path d="M19.2019 12.1685C19.2019 12.1685 18.5258 9.0137 17.399 9.68972C16.2722 10.3658 19.2019 12.1685 19.2019 12.1685Z" fill="#FDE617"/>
<path d="M30.62 14.4007C30.62 14.4007 33.7124 1.40717 32.3108 1.3595C30.9093 1.31184 30.62 14.4007 30.62 14.4007Z" fill="#FDE617"/>
<path d="M30.0445 17.2775L30.0192 15.5519C30.011 14.9977 29.8391 1.95755 31.5346 0.236896C31.5994 0.1645 31.6783 0.106132 31.7665 0.0653898C31.8547 0.0246477 31.9503 0.00239373 32.0474 0C32.1416 0.000384747 32.2345 0.0229707 32.3184 0.0659257C32.4023 0.108881 32.4748 0.170997 32.5302 0.247239C33.8349 1.91816 30.8121 14.2075 30.4631 15.6033L30.0445 17.2775ZM32.0474 0.450685C32.0249 0.450685 31.9567 0.450685 31.8557 0.553234C30.7359 1.68963 30.476 9.24949 30.4608 13.6955C31.7021 8.39775 32.9671 1.53889 32.175 0.524626C32.1618 0.502481 32.1431 0.484073 32.1208 0.471138C32.0985 0.458202 32.0732 0.451163 32.0474 0.450685Z" fill="#3F3D56"/>
<path d="M44.8929 16.2247C44.8929 16.2247 46.2451 12.8445 47.5972 13.7459C48.9494 14.6473 44.8929 16.2247 44.8929 16.2247Z" fill="#FDE617"/>
<path d="M32.0474 46.1952C32.0474 46.1952 30.2445 59.4904 33.6249 59.2651C37.0053 59.0398 32.0474 46.1952 32.0474 46.1952Z" fill="#FDE617"/>
<path d="M41.4781 43.1717C41.4781 43.1717 39.7507 40.293 39.7507 38.2779C39.7507 38.2779 36.7278 35.1113 37.5915 34.2477C38.4552 33.3841 40.3265 36.6946 40.3265 36.6946C40.3265 36.6946 36.8718 32.8083 37.8794 32.2326C38.887 31.6568 42.1978 35.9749 42.1978 35.9749L43.3494 35.3992C43.3494 35.3992 40.9034 29.3669 42.6296 29.2099C43.4213 29.138 45.2207 34.9674 45.2207 34.9674L47.092 39.7172C47.092 39.7172 47.8117 41.4444 47.5238 42.452C47.3484 43.068 47.2043 43.6926 47.092 44.3232L41.4781 43.1717Z" fill="#FFB9B9"/>
<path opacity="0.1" d="M45.9404 43.8914C45.9404 43.8914 46.948 42.3081 46.5834 39.8905C46.2187 37.4729 44.213 36.1189 44.213 36.1189C44.213 36.1189 42.9175 37.1264 44.213 39.7173C44.213 39.7173 42.6296 41.1566 43.9252 43.4596" fill="black"/>
<path d="M46.5162 43.8914C46.5162 43.8914 47.5238 42.3081 47.1591 39.8905C46.7945 37.4729 44.7888 36.1189 44.7888 36.1189C44.7888 36.1189 43.4933 37.1264 44.7888 39.7173C44.7888 39.7173 43.2054 41.1566 44.5009 43.4596" fill="#FFB9B9"/>
<path opacity="0.1" d="M42.5577 35.9029L41.7659 34.6795C41.7659 34.6795 38.0233 34.1037 38.4552 35.3992C38.887 36.6946 40.6144 36.1188 40.6144 36.1188L41.622 37.1264L42.5577 35.9029Z" fill="black"/>
<path d="M43.2054 35.831L42.0538 34.2477C42.0538 34.2477 38.3112 33.6719 38.7431 34.9674C39.1749 36.2628 40.9023 35.687 40.9023 35.687L41.9099 36.6946L43.2054 35.831Z" fill="#FFB9B9"/>
<path d="M69.9076 54.7584L69.1878 60.5158L80.4157 61.2355V54.3267L69.9076 54.7584Z" fill="#FFB9B9"/>
<path d="M101 87L91.8946 68.7905C91.3506 66.9894 89.6519 64.0559 84.3742 62.1711L80.4156 58.8227L77.4647 58.7167L65.6611 56.9895C65.6611 56.9895 56.5925 56.4137 50.6906 60.0121L49.1072 59.2924C49.1072 59.2924 46.5162 50.0806 47.6678 43.4595L41.0462 42.8838C41.0462 42.8838 37.4475 58.5728 39.1749 63.3226C40.9023 68.0725 47.2359 71.5269 47.2359 71.5269L52.8498 77.1404L55.009 86.928H88.6926L89.2285 84.36L91.8594 86.928L101 87Z" fill="#CFCCE0"/>
<path d="M88.269 54.3274C77.6639 57.1909 67.2405 57.3933 57.0374 54.3715C55.8381 54.0163 55.0181 52.9633 55.0181 51.7682V21.9655C55.0181 20.632 56.0329 19.4945 57.4158 19.2776C67.0407 17.7683 77.2371 17.8852 87.9015 19.3339C89.3106 19.5254 90.3567 20.676 90.3567 22.0303V51.7051C90.3567 52.9253 89.5027 53.9943 88.269 54.3274Z" fill="#CFCCE0"/>
<path d="M66.398 33.9335C66.398 33.9335 63.9587 30.3687 65.4598 29.4306C66.9609 28.4925 69.2125 31.1192 69.2125 31.1192C69.2125 31.1192 72.027 28.6801 73.528 29.6182C75.0291 30.5563 72.027 33.9335 72.027 33.9335C72.027 33.9335 74.2786 34.4963 74.4662 35.9973C74.6538 37.4982 75.4043 41.4382 72.2146 41.6258C70.5058 41.7263 69.5509 41.2345 69.0325 40.7562C68.8439 40.5871 68.6002 40.4923 68.3469 40.4893C68.0936 40.4863 67.8478 40.5753 67.6552 40.7399C66.5735 41.6511 64.6254 42.7015 63.2082 40.1249C62.6453 36.1849 66.398 33.9335 66.398 33.9335Z" fill="#3F3D56"/>
<path d="M84.4107 34.3087C84.4107 34.3087 86.85 30.7439 85.3489 29.8058C83.8478 28.8678 81.5962 31.4944 81.5962 31.4944C81.5962 31.4944 78.7818 29.0554 77.2807 29.9935C75.7796 30.9316 78.7817 34.3087 78.7817 34.3087C78.7817 34.3087 76.5301 34.8715 76.3425 36.3725C76.1549 37.8734 75.4044 41.8134 78.5941 42.001C80.3029 42.1015 81.2578 41.6098 81.7762 41.1314C81.9648 40.9624 82.2085 40.8675 82.4618 40.8645C82.7151 40.8615 82.9609 40.9506 83.1536 41.1151C84.2352 42.0263 86.1833 43.0767 87.6005 40.5001C88.1634 36.5601 84.4107 34.3087 84.4107 34.3087Z" fill="#3F3D56"/>
<path d="M63.4366 44.0514C63.4366 44.0514 66.9564 46.885 74.462 46.7063C81.9675 46.5277 84.3947 46.2213 85.999 44.4524C87.6033 42.6835 88.0788 44.7265 87.5806 46.0657C87.0825 47.405 86.4427 49.6903 82.7036 50.0607C80.2421 50.3046 74.9218 50.3624 71.5736 50.3734C68.9712 50.395 66.3981 49.8226 64.0502 48.6999C64.0192 48.6848 63.9882 48.6697 63.9574 48.6545C63.2452 48.3028 62.6455 47.7589 62.2262 47.0844C61.8068 46.4098 61.5844 45.6314 61.5842 44.8371C61.5845 44.206 61.6956 43.8649 62.1065 43.7407C62.8469 43.5166 63.4366 44.0514 63.4366 44.0514Z" fill="#3F3D56"/>
<path d="M74.2035 57.0335C68.467 57.0364 62.763 56.1712 57.2854 54.4672C56.6078 54.2597 56.0149 53.8398 55.5941 53.2697C55.1733 52.6995 54.947 52.0092 54.9485 51.3005V16.3866C54.9462 15.6005 55.2244 14.8393 55.7331 14.24C56.2418 13.6407 56.9476 13.2424 57.7237 13.1169C68.0607 11.4133 79.5068 11.4354 91.744 13.1826C92.5317 13.2989 93.2517 13.6938 93.7731 14.2956C94.2945 14.8974 94.5829 15.6662 94.5858 16.4624V51.2267C94.5829 51.9483 94.3457 52.6495 93.91 53.2247C93.4742 53.7999 92.8635 54.2181 92.1696 54.4164C86.1773 56.1168 80.2531 56.997 74.5617 57.0324C74.4427 57.0331 74.3226 57.0335 74.2035 57.0335ZM73.8047 12.1001C68.4323 12.0822 63.0674 12.503 57.7634 13.3583C57.0447 13.4746 56.391 13.8434 55.9198 14.3985C55.4487 14.9536 55.191 15.6585 55.1932 16.3866V51.3005C55.1918 51.9569 55.4015 52.5964 55.7914 53.1245C56.1812 53.6526 56.7305 54.0414 57.3582 54.2335C68.2945 57.6377 79.9842 57.62 92.1027 54.1811L92.1362 54.2988L92.1027 54.1811C92.7455 53.9975 93.3113 53.6102 93.7149 53.0774C94.1186 52.5446 94.3383 51.8951 94.3411 51.2267V16.4624C94.3384 15.725 94.0714 15.013 93.5885 14.4556C93.1056 13.8982 92.4389 13.5325 91.7093 13.4247C85.7799 12.5609 79.7967 12.1183 73.8047 12.1001V12.1001Z" fill="#3F3D56"/>
<path d="M73.0531 17.2768C70.3577 17.2768 68.051 17.1559 66.1624 16.9921C60.2224 16.4769 57.0215 15.4372 56.9899 15.4267L57.0666 15.1944C57.098 15.2048 60.2795 16.2373 66.195 16.7494C71.6547 17.2221 80.6267 17.3352 92.3617 15.1902L92.4057 15.4309C84.6961 16.8401 78.1741 17.2768 73.0531 17.2768Z" fill="#3F3D56"/>
</g>
<defs>
<clipPath id="clip0">
<rect width="101" height="87" fill="white"/>
</clipPath>
</defs>
</svg>
