<svg width="288" height="94" viewBox="0 0 288 94" fill="none" xmlns="http://www.w3.org/2000/svg">
<path d="M21.96 72.864C17.4 72.864 13.704 71.808 10.872 69.696C8.088 67.536 6.528 64.584 6.192 60.84H12.456C12.744 62.808 13.704 64.416 15.336 65.664C17.016 66.912 19.272 67.536 22.104 67.536C24.792 67.536 26.784 66.96 28.08 65.808C29.424 64.656 30.096 63.336 30.096 61.848C30.096 59.832 29.304 58.464 27.72 57.744C26.136 56.976 23.76 56.4 20.592 56.016C16.8 55.584 13.656 54.552 11.16 52.92C8.664 51.288 7.416 48.84 7.416 45.576C7.416 42.648 8.64 40.224 11.088 38.304C13.536 36.384 16.872 35.424 21.096 35.424C25.272 35.424 28.56 36.384 30.96 38.304C33.36 40.176 34.728 42.864 35.064 46.368H29.088C28.944 44.64 28.104 43.272 26.568 42.264C25.08 41.208 23.208 40.68 20.952 40.68C18.6 40.68 16.776 41.136 15.48 42.048C14.184 42.912 13.536 44.064 13.536 45.504C13.536 46.944 14.256 48.144 15.696 49.104C17.184 50.016 19.512 50.616 22.68 50.904C25.176 51.192 27.456 51.672 29.52 52.344C31.584 53.016 33.216 54.072 34.416 55.512C35.664 56.952 36.288 58.968 36.288 61.56C36.336 63.72 35.736 65.664 34.488 67.392C33.288 69.072 31.608 70.416 29.448 71.424C27.288 72.384 24.792 72.864 21.96 72.864ZM64.7719 72.864C61.4119 72.864 58.4359 72.096 55.8439 70.56C53.2519 69.024 51.2119 66.864 49.7239 64.08C48.2359 61.248 47.4919 57.936 47.4919 54.144C47.4919 50.352 48.2359 47.064 49.7239 44.28C51.2119 41.448 53.2519 39.264 55.8439 37.728C58.4359 36.192 61.4119 35.424 64.7719 35.424C68.1319 35.424 71.1079 36.192 73.6999 37.728C76.2919 39.264 78.3319 41.448 79.8199 44.28C81.3079 47.064 82.0519 50.352 82.0519 54.144C82.0519 57.936 81.3079 61.248 79.8199 64.08C78.3319 66.864 76.2919 69.024 73.6999 70.56C71.1079 72.096 68.1319 72.864 64.7719 72.864ZM64.7719 67.104C66.8359 67.104 68.7079 66.648 70.3879 65.736C72.0679 64.824 73.3879 63.408 74.3479 61.488C75.3559 59.568 75.8599 57.12 75.8599 54.144C75.8599 51.168 75.3559 48.72 74.3479 46.8C73.3879 44.88 72.0679 43.464 70.3879 42.552C68.7079 41.64 66.8359 41.184 64.7719 41.184C62.7559 41.184 60.9079 41.64 59.2279 42.552C57.5479 43.464 56.2039 44.88 55.1959 46.8C54.1879 48.72 53.6839 51.168 53.6839 54.144C53.6839 58.608 54.7639 61.896 56.9239 64.008C59.0839 66.072 61.6999 67.104 64.7719 67.104ZM105.424 72.864C101.104 72.864 97.8398 71.568 95.6318 68.976C93.4238 66.384 92.3198 62.64 92.3198 57.744V36.288H98.3678V57.024C98.3678 60.192 99.0638 62.688 100.456 64.512C101.896 66.288 104.056 67.176 106.936 67.176C109.816 67.176 112.24 66.216 114.208 64.296C116.176 62.328 117.16 59.52 117.16 55.872V36.288H123.208V72H118.168L117.52 66.6H117.16C116.2 68.328 114.688 69.816 112.624 71.064C110.56 72.264 108.16 72.864 105.424 72.864ZM135.852 72V36.288H140.892L141.54 41.688H141.9C142.86 39.96 144.372 38.496 146.436 37.296C148.5 36.048 150.876 35.424 153.564 35.424C157.932 35.424 161.196 36.72 163.356 39.312C165.564 41.904 166.668 45.648 166.668 50.544V72H160.62V51.264C160.62 48.096 159.924 45.624 158.532 43.848C157.14 42.024 154.98 41.112 152.052 41.112C149.22 41.112 146.82 42.096 144.852 44.064C142.884 45.984 141.9 48.768 141.9 52.416V72H135.852ZM193.064 72.864C190.04 72.864 187.328 72.144 184.928 70.704C182.576 69.264 180.728 67.152 179.384 64.368C178.04 61.536 177.368 58.104 177.368 54.072C177.368 50.088 178.04 46.704 179.384 43.92C180.728 41.136 182.576 39.024 184.928 37.584C187.328 36.144 190.04 35.424 193.064 35.424C195.896 35.424 198.224 35.976 200.048 37.08C201.92 38.184 203.312 39.624 204.224 41.4V20.16H210.272V72H205.304L204.656 66.456H204.224C203.264 68.424 201.848 69.984 199.976 71.136C198.104 72.288 195.8 72.864 193.064 72.864ZM193.855 67.104C196.88 67.104 199.376 66.048 201.344 63.936C203.312 61.776 204.296 58.512 204.296 54.144C204.296 49.776 203.312 46.536 201.344 44.424C199.376 42.264 196.88 41.184 193.855 41.184C190.832 41.184 188.336 42.264 186.368 44.424C184.448 46.536 183.488 49.776 183.488 54.144C183.488 58.512 184.448 61.776 186.368 63.936C188.336 66.048 190.832 67.104 193.855 67.104ZM221.907 72V66.816H231.051V43.272C231.051 42.072 230.475 41.472 229.323 41.472H222.843V36.288H231.555C233.139 36.288 234.411 36.72 235.371 37.584C236.331 38.448 236.811 39.72 236.811 41.4V42.912H237.099C237.675 40.512 238.755 38.664 240.339 37.368C241.971 36.072 244.227 35.424 247.107 35.424H253.659V41.832H246.243C243.315 41.832 241.059 42.816 239.475 44.784C237.891 46.704 237.099 49.176 237.099 52.2V66.816H248.331V72H221.907Z" fill="white"/>
<path d="M265.055 72L259.823 60.096H262.127L266.231 69.792L270.359 60.096H272.639L267.383 72H265.055ZM275.198 72V70.416C276.926 69.04 278.43 67.776 279.71 66.624C281.006 65.472 282.006 64.36 282.71 63.288C283.414 62.216 283.766 61.12 283.766 60C283.766 58.992 283.478 58.2 282.902 57.624C282.342 57.032 281.582 56.736 280.622 56.736C279.886 56.736 279.262 56.896 278.75 57.216C278.238 57.536 277.854 57.96 277.598 58.488C277.342 59.016 277.214 59.584 277.214 60.192H275.222C275.238 59.088 275.478 58.144 275.942 57.36C276.422 56.56 277.062 55.952 277.862 55.536C278.678 55.12 279.598 54.912 280.622 54.912C282.27 54.912 283.55 55.368 284.462 56.28C285.374 57.192 285.83 58.416 285.83 59.952C285.83 60.96 285.614 61.928 285.182 62.856C284.75 63.768 284.174 64.648 283.454 65.496C282.734 66.344 281.926 67.16 281.03 67.944C280.134 68.728 279.23 69.48 278.318 70.2H286.286V72H275.198Z" fill="#FDE617"/>
<path d="M81.6148 50.6812V34.4628C81.6148 34.2707 81.5769 34.0805 81.5034 33.903C81.4299 33.7255 81.3221 33.5643 81.1863 33.4284C81.0505 33.2926 80.8892 33.1849 80.7118 33.1113C80.5343 33.0378 80.3441 33 80.152 33H77.2264C77.0343 33 76.8441 33.0378 76.6667 33.1113C76.4892 33.1849 76.3279 33.2926 76.1921 33.4284C76.0563 33.5643 75.9485 33.7255 75.875 33.903C75.8015 34.0805 75.7637 34.2707 75.7637 34.4628V49.7031C73.6006 50.0542 71.6326 51.1623 70.2106 52.8297C68.7886 54.4971 68.0052 56.6154 68 58.8068C67.9948 60.9982 68.7683 63.1201 70.1823 64.7942C71.5964 66.4683 73.5592 67.5857 75.7206 67.9471C77.882 68.3084 80.1014 67.8903 81.9831 66.7672C83.8648 65.6441 85.2864 63.889 85.9943 61.8151C86.7022 59.7412 86.6504 57.4833 85.8482 55.4441C85.0459 53.4048 83.5454 51.7168 81.6141 50.6812H81.6148Z" fill="#FDE617"/>
<path d="M77.7142 63.2273C80.1375 63.2273 82.1019 61.2629 82.1019 58.8396C82.1019 56.4163 80.1375 54.4519 77.7142 54.4519C75.291 54.4519 73.3265 56.4163 73.3265 58.8396C73.3265 61.2629 75.291 63.2273 77.7142 63.2273Z" fill="white"/>
</svg>
